<svg id="圖層_1" data-name="圖層 1" xmlns="http://www.w3.org/2000/svg" viewBox="0 0 67.15 68.86"><defs><style>.cls-1{opacity:0.71;}.cls-2{fill:#5cbde7;}.cls-3{fill:none;stroke:#5cbde7;stroke-miterlimit:10;stroke-width:0.5px;}</style></defs><title>Icon-Barcode</title><g class="cls-1"><rect class="cls-2" x="13.07" y="30.22" width="2.24" height="12.72"/><rect class="cls-2" x="17.09" y="30.22" width="0.63" height="12.72"/><rect class="cls-2" x="19.18" y="30.22" width="1.01" height="12.72"/><rect class="cls-2" x="20.99" y="30.22" width="3.3" height="12.72"/><rect class="cls-2" x="25.08" y="30.22" width="1.42" height="12.72"/><rect class="cls-2" x="27.78" y="30.22" width="0.72" height="12.72"/><line class="cls-3" x1="29.63" y1="41.3" x2="37.51" y2="44.73"/><line class="cls-3" x1="23.1" y1="29.62" x2="28.21" y2="24.36"/><rect class="cls-3" x="12.01" y="29.62" width="17.63" height="14.19" rx="0.78" ry="0.78"/><rect class="cls-2" x="38.57" y="42.98" width="2.24" height="12.72"/><rect class="cls-2" x="42.59" y="42.98" width="0.63" height="12.72"/><rect class="cls-2" x="44.68" y="42.98" width="1.01" height="12.72"/><rect class="cls-2" x="46.49" y="42.98" width="3.3" height="12.72"/><rect class="cls-2" x="50.58" y="42.98" width="1.42" height="12.72"/><rect class="cls-2" x="53.28" y="42.98" width="0.72" height="12.72"/><rect class="cls-3" x="37.51" y="42.37" width="17.63" height="14.19" rx="0.78" ry="0.78"/><rect class="cls-2" x="29.25" y="12.91" width="2.24" height="12.72"/><rect class="cls-2" x="33.27" y="12.91" width="0.63" height="12.72"/><rect class="cls-2" x="35.36" y="12.91" width="1.01" height="12.72"/><rect class="cls-2" x="37.18" y="12.91" width="3.3" height="12.72"/><rect class="cls-2" x="41.27" y="12.91" width="1.42" height="12.72"/><rect class="cls-2" x="43.96" y="12.91" width="0.72" height="12.72"/><rect class="cls-3" x="28.19" y="12.31" width="17.63" height="14.19" rx="0.78" ry="0.78"/></g></svg>