<svg id="圖層_1" data-name="圖層 1" xmlns="http://www.w3.org/2000/svg" viewBox="0 0 67.15 68.86"><defs><style>.cls-1,.cls-3,.cls-4,.cls-5,.cls-6{fill:none;stroke:#5cbde7;stroke-miterlimit:10;stroke-width:0.5px;}.cls-2{fill:#5cbde7;opacity:0.3;}.cls-3{stroke-dasharray:2.11 2.11;}.cls-4{stroke-dasharray:2.17 2.17;}.cls-5{stroke-dasharray:1.91 1.91;}.cls-6{stroke-dasharray:2.07 2.07;}</style></defs><title>Icon-Flow</title><circle class="cls-1" cx="9.2" cy="35.53" r="3.6"/><circle class="cls-2" cx="24.62" cy="11.78" r="3.6"/><circle class="cls-2" cx="24.35" cy="59.18" r="3.6"/><circle class="cls-2" cx="32.91" cy="22.89" r="3.6"/><circle class="cls-2" cx="32.91" cy="59.18" r="3.6"/><circle class="cls-2" cx="41.46" cy="11.78" r="3.6"/><circle class="cls-2" cx="41.46" cy="59.02" r="3.6"/><path class="cls-1" d="M45.06,59h1.2a3.6,3.6,0,0,0,3.6-3.6V42.73a3.6,3.6,0,0,1,3.6-3.6h2.75"/><line class="cls-1" x1="27.96" y1="59.18" x2="29.3" y2="59.18"/><line class="cls-1" x1="36.51" y1="59.18" x2="37.86" y2="59.18"/><path class="cls-1" d="M20.75,59.18h-.24a4.1,4.1,0,0,1-4.1-4.1V39.25a3.6,3.6,0,0,0-3.6-3.6"/><path class="cls-1" d="M22.86,8.61A4.09,4.09,0,0,0,22,8.14"/><path class="cls-3" d="M19.9,7.92A4.1,4.1,0,0,0,16.41,12V31a3.6,3.6,0,0,1-1.66,3"/><path class="cls-1" d="M13.8,34.51a3.61,3.61,0,0,1-1,.14"/><path class="cls-1" d="M31.58,26.94a4.09,4.09,0,0,1-.87.49"/><path class="cls-4" d="M28.57,27.73a4.1,4.1,0,0,1-4-4.1V18"/><line class="cls-1" x1="24.62" y1="16.88" x2="24.62" y2="15.88"/><path class="cls-1" d="M39.19,8.37A3.58,3.58,0,0,0,38.27,8"/><path class="cls-5" d="M36.38,8a4.1,4.1,0,0,0-3.12,4v5"/><line class="cls-1" x1="33.25" y1="17.96" x2="33.25" y2="18.96"/><path class="cls-1" d="M41.46,15.88v1"/><path class="cls-6" d="M41.46,18.95v4.93a3.6,3.6,0,0,0,3.6,3.6h9.12"/><line class="cls-1" x1="55.22" y1="27.48" x2="56.22" y2="27.48"/></svg>