<svg id="圖層_1" data-name="圖層 1" xmlns="http://www.w3.org/2000/svg" viewBox="0 0 67.15 68.86"><defs><style>.cls-1{fill:none;stroke:#5cbde7;stroke-linecap:round;stroke-miterlimit:10;stroke-width:0.5px;}.cls-2{fill:#5cbde7;}</style></defs><title>Icon-Goods</title><path class="cls-1" d="M37.94,27.13a38,38,0,0,1,8.88,1.75"/><path class="cls-1" d="M23.38,28a46.83,46.83,0,0,1,10.15-1.05c1.13,0,2.25,0,3.33.1"/><path class="cls-1" d="M29.6,26.75c5-7.12,10.83-11.23,13.86-9.46,2.13,1.24,2.41,5.09,1.11,10"/><path class="cls-1" d="M25,34.58c.61-1.3,1.31-2.62,2.08-3.94q.81-1.39,1.66-2.68"/><path class="cls-1" d="M22.9,40A42.8,42.8,0,0,1,25,34.58"/><path class="cls-1" d="M25,34.15a37,37,0,0,1-3.05-9"/><path class="cls-1" d="M51.08,30.79a4.39,4.39,0,0,1,2.14,3.36c0,2.35-2.9,4.44-7.43,5.8"/><path class="cls-1" d="M28.63,41.35c-8.57-.81-14.92-3.73-14.92-7.2,0-2.4,3-4.53,7.72-5.88"/><path class="cls-1" d="M44.06,40.42a46.29,46.29,0,0,1-10.59,1.16q-1.07,0-2.1,0"/><path class="cls-1" d="M27.81,50.94c-1.68.8-3.17.94-4.28.29-2.14-1.24-2.41-5.12-1.09-10.07"/><path class="cls-1" d="M44.24,28a46.15,46.15,0,0,1-4.36,9.85,41.8,41.8,0,0,1-8.64,10.76"/><path class="cls-1" d="M21.61,21c.12-1.89.73-3.27,1.85-3.93,2.07-1.22,5.45.32,9,3.7"/><path class="cls-1" d="M33.34,46.38a46.43,46.43,0,0,1-6.28-8.46q-.81-1.37-1.5-2.74"/><path class="cls-1" d="M34,22.41a47.18,47.18,0,0,1,5.83,8c5.52,9.41,7.14,18.72,3.6,20.8-2.08,1.22-5.49-.34-9.07-3.76"/><circle class="cls-1" cx="48.95" cy="29.67" r="1.43"/><circle class="cls-1" cx="29.57" cy="49.8" r="1.43"/><circle class="cls-1" cx="21.9" cy="23.02" r="1.43"/><path class="cls-2" d="M36.38,37.5H30.55a.51.51,0,0,1-.51-.56l.31-3.9a.51.51,0,0,1,.51-.47H36a.51.51,0,0,1,.51.47l.34,3.9A.51.51,0,0,1,36.38,37.5Z"/><path class="cls-1" d="M35.13,32.58a1.73,1.73,0,0,0-3.46,0"/></svg>