<svg id="圖層_1" data-name="圖層 1" xmlns="http://www.w3.org/2000/svg" xmlns:xlink="http://www.w3.org/1999/xlink" viewBox="0 0 67.15 68.86"><defs><style>.cls-1,.cls-2,.cls-4,.cls-5{fill:none;}.cls-2,.cls-4,.cls-5{stroke:#5cbde7;}.cls-2,.cls-4{stroke-linecap:round;}.cls-2{stroke-miterlimit:10;stroke-width:0.5px;}.cls-3{fill:#5cbde7;}.cls-4,.cls-5{stroke-linejoin:round;}.cls-6{clip-path:url(#clip-path);}</style><clipPath id="clip-path"><path class="cls-1" d="M41.44,45.51H38.78V33.88h6.13v8.23S41.84,42.63,41.44,45.51Z"/></clipPath></defs><title>Icon-Map</title><rect class="cls-2" x="14.03" y="19.01" width="39.09" height="32.85"/><rect class="cls-3" x="39.15" y="20.36" width="5.38" height="11.1"/><rect class="cls-3" x="47.56" y="20.28" width="4.66" height="14.03"/><rect class="cls-3" x="47.56" y="36.16" width="4.66" height="5.37"/><rect class="cls-3" x="30.91" y="20.19" width="5.38" height="11.27"/><rect class="cls-3" x="22.89" y="20.06" width="5.38" height="2.38"/><rect class="cls-3" x="30.91" y="34.25" width="5.38" height="15.72"/><rect class="cls-3" x="22.89" y="32.55" width="5.38" height="17.42"/><rect class="cls-3" x="14.92" y="37.34" width="5.38" height="12.64"/><rect class="cls-3" x="14.92" y="20.36" width="5.38" height="14.2"/><polyline class="cls-4" points="45.92 39.74 45.92 32.88 29.82 32.88 29.82 29.7"/><line class="cls-5" x1="45.92" y1="41" x2="45.92" y2="39.47"/><path class="cls-3" d="M46.06,44l-2.17,5.36a.06.06,0,0,0,.1.07l2.09-1.72a.06.06,0,0,1,.08,0l2.09,1.72a.06.06,0,0,0,.1-.07L46.17,44A.06.06,0,0,0,46.06,44Z"/><circle class="cls-2" cx="46.12" cy="46.67" r="4.14"/><path class="cls-3" d="M28.41,29.66H22.76a.5.5,0,0,1-.5-.54l.3-3.78a.5.5,0,0,1,.5-.46h5a.5.5,0,0,1,.5.45l.33,3.78A.5.5,0,0,1,28.41,29.66Z"/><path class="cls-2" d="M27.19,24.89a1.68,1.68,0,1,0-3.36,0"/><g class="cls-6"><rect class="cls-3" x="39.15" y="34.25" width="5.38" height="11"/></g></svg>