<svg id="圖層_1" data-name="圖層 1" xmlns="http://www.w3.org/2000/svg" viewBox="0 0 67.15 68.86"><defs><style>.cls-1,.cls-3{fill:none;}.cls-2{opacity:0.58;}.cls-3,.cls-5,.cls-7{stroke:#5cbde7;stroke-linecap:round;stroke-linejoin:round;stroke-width:0.5px;}.cls-4,.cls-6{fill:#5cbde7;}.cls-5,.cls-7{fill:#fff;}.cls-5,.cls-6{opacity:0.79;}</style></defs><title>Icon-Autentication</title><polygon class="cls-1" points="86.94 -40.86 67.15 7.5 105.1 7.5 105.1 -40.86 86.94 -40.86"/><g class="cls-2"><rect class="cls-3" x="28.95" y="26.76" width="26.34" height="24"/><rect class="cls-4" x="31.43" y="28.57" width="21.58" height="3.25"/><rect class="cls-4" x="31.43" y="34.39" width="21.58" height="3.25"/><rect class="cls-4" x="31.43" y="40.21" width="17.66" height="3.25"/><rect class="cls-4" x="31.43" y="46.03" width="12.85" height="3.25"/></g><rect class="cls-5" x="13.37" y="23.68" width="26.34" height="24"/><rect class="cls-6" x="15.84" y="25.49" width="21.58" height="3.25"/><rect class="cls-6" x="15.84" y="31.31" width="21.58" height="3.25"/><rect class="cls-6" x="15.84" y="37.13" width="17.66" height="3.25"/><rect class="cls-6" x="15.84" y="42.96" width="12.85" height="3.25"/><rect class="cls-7" x="20.21" y="20.6" width="26.34" height="24"/><rect class="cls-4" x="22.69" y="22.41" width="21.58" height="3.25"/><rect class="cls-4" x="22.69" y="28.23" width="21.58" height="3.25"/><rect class="cls-4" x="22.69" y="34.06" width="17.66" height="3.25"/><rect class="cls-4" x="22.69" y="39.88" width="12.85" height="3.25"/><polyline class="cls-7" points="46.64 44.97 46.64 49.94 43.17 48.33 39.7 49.94 39.7 44.97"/><circle class="cls-7" cx="43.17" cy="40.37" r="5.66"/><path class="cls-4" d="M43.26,36.76,44,39a.09.09,0,0,0,.09.07h2.41a.09.09,0,0,1,.06.17L44.61,40.7a.09.09,0,0,0,0,.11l.74,2.29a.09.09,0,0,1-.15.11l-1.95-1.42a.09.09,0,0,0-.11,0L41.17,43.2A.09.09,0,0,1,41,43.1l.74-2.29a.09.09,0,0,0,0-.11l-1.95-1.42a.09.09,0,0,1,.06-.17h2.41a.09.09,0,0,0,.09-.07l.74-2.29A.09.09,0,0,1,43.26,36.76Z"/></svg>