<svg id="圖層_1" data-name="圖層 1" xmlns="http://www.w3.org/2000/svg" xmlns:xlink="http://www.w3.org/1999/xlink" viewBox="0 0 67.15 68.86"><defs><style>.cls-1,.cls-3{fill:none;}.cls-2{clip-path:url(#clip-path);}.cls-3{stroke:#5cbde7;stroke-miterlimit:10;stroke-width:0.75px;}.cls-4{clip-path:url(#clip-path-2);}</style><clipPath id="clip-path"><polygon class="cls-1" points="23.32 53.79 42.64 6.6 5.61 6.6 5.61 53.79 23.32 53.79"/></clipPath><clipPath id="clip-path-2"><polygon class="cls-1" points="41.82 8.31 22.51 55.49 59.54 55.49 59.54 8.31 41.82 8.31"/></clipPath></defs><title>Icon-O2O</title><g class="cls-2"><rect class="cls-3" x="13.63" y="18.93" width="38.63" height="29.93"/><line class="cls-3" x1="13.63" y1="22.98" x2="52.26" y2="22.98"/><path class="cls-3" d="M20.07,25.68c0,1.42-1.44,2.57-3.22,2.57s-3.22-1.15-3.22-2.57V23h6.44Z"/><path class="cls-3" d="M26.51,25.68c0,1.42-1.44,2.57-3.22,2.57s-3.22-1.15-3.22-2.57V23h6.44Z"/><path class="cls-3" d="M32.95,25.68c0,1.42-1.44,2.57-3.22,2.57s-3.22-1.15-3.22-2.57V23h6.44Z"/><path class="cls-3" d="M39.38,25.68c0,1.42-1.44,2.57-3.22,2.57s-3.22-1.15-3.22-2.57V23h6.44Z"/><path class="cls-3" d="M45.82,25.68c0,1.42-1.44,2.57-3.22,2.57s-3.22-1.15-3.22-2.57V23h6.44Z"/><path class="cls-3" d="M52.26,25.68c0,1.42-1.44,2.57-3.22,2.57s-3.22-1.15-3.22-2.57V23h6.44Z"/><line class="cls-3" x1="18.67" y1="27.8" x2="18.67" y2="48.86"/><line class="cls-3" x1="28.54" y1="28.07" x2="28.54" y2="48.86"/><line class="cls-3" x1="18.67" y1="38.46" x2="24.13" y2="38.46"/></g><g class="cls-4"><rect class="cls-3" x="13.51" y="18.92" width="38.63" height="29.93"/><line class="cls-3" x1="13.51" y1="22.98" x2="52.15" y2="22.98"/><circle class="cls-3" cx="49.73" cy="20.98" r="1.24"/><circle class="cls-3" cx="45.71" cy="20.98" r="1.24"/><circle class="cls-3" cx="41.7" cy="20.98" r="1.24"/><rect class="cls-3" x="16.8" y="26.32" width="18.36" height="12.4"/><line class="cls-3" x1="38.04" y1="26.32" x2="48.8" y2="26.32"/><line class="cls-3" x1="38.04" y1="30.45" x2="48.8" y2="30.45"/><line class="cls-3" x1="38.04" y1="34.58" x2="46.95" y2="34.58"/><line class="cls-3" x1="38.04" y1="38.72" x2="43.8" y2="38.72"/><line class="cls-3" x1="17.43" y1="42.24" x2="48.49" y2="42.24"/><line class="cls-3" x1="17.43" y1="45.83" x2="48.49" y2="45.83"/></g><line class="cls-3" x1="38.79" y1="15.72" x2="23.83" y2="52.25"/></svg>