<svg xmlns="http://www.w3.org/2000/svg" viewBox="0 0 1185.15 398.23"><defs><style>.cls-1{fill:#fff;}.cls-2{font-size:22px;fill:gray;font-family:Microsoft-Yi-Baiti, Microsoft Yi Baiti;}.cls-3,.cls-4{font-size:119.39px;font-family:Stellar-Bold, Stellar;font-weight:700;}.cls-4{letter-spacing:-0.01em;}.cls-5{letter-spacing:-0.02em;}.cls-6{letter-spacing:0em;}.cls-7{fill:#d4f7f7;}.cls-8{fill:#64c7db;}.cls-9{fill:#7d511f;}.cls-10{fill:#fdc1a7;}.cls-11,.cls-18,.cls-21,.cls-24,.cls-28{fill:none;stroke-miterlimit:10;}.cls-11{stroke:#4b484f;stroke-width:1.37px;}.cls-12{fill:#e05555;}.cls-13{fill:#ff9191;}.cls-14{fill:red;opacity:0.52;}.cls-15{fill:#462716;}.cls-16{fill:#5e3019;}.cls-17{fill:#e9a315;}.cls-18{stroke:#5e3019;}.cls-18,.cls-21,.cls-24,.cls-28{stroke-width:1.63px;}.cls-19{fill:#0277a1;}.cls-20{fill:#23cbff;}.cls-21{stroke:#23cbff;}.cls-22{letter-spacing:-0.02em;}.cls-23{fill:#e3e3d2;}.cls-24{stroke:#fafbfc;}.cls-25{fill:#fafbfc;}.cls-26{fill:#eda704;}.cls-27{fill:#7b0b32;}.cls-28{stroke:#ce2f65;}.cls-29{fill:#ce2f65;}.cls-30{fill:#cbcbcb;}.cls-31{fill:#ebecee;}</style></defs><title>Persona</title><g id="BG"><rect class="cls-1" x="-1" width="1185.15" height="398.23"/></g><g id="圖層_1" data-name="圖層 1"><text class="cls-2" transform="translate(326.47 146.67) scale(1.02 1)">Age:16~45</text><text class="cls-2" transform="translate(289.08 185.29) scale(1.02 1)">Gender:Unlimited</text><text class="cls-2" transform="translate(101.06 223.21) scale(1.02 1)">Occupation:College Student,White Collar</text><text class="cls-2" transform="translate(68.83 263.24) scale(1.02 1)">Yearly Income:RMB 10,000~RMB 30,000</text><text class="cls-3" transform="translate(757.64 289.08) scale(1.02 1)">pper</text><text class="cls-4" transform="translate(592.3 153.41) scale(1.02 1)">O<tspan class="cls-5" x="67.81" y="0">n</tspan><tspan class="cls-6" x="126.31" y="0">e</tspan></text><rect class="cls-7" x="541.42" y="318.36" width="493.56" height="6.74" rx="3.37" ry="3.37"/><path class="cls-8" d="M1020.31,325.11h0c0,6.83-7.47,12.41-16.59,12.41h-431c-9.13,0-16.6-5.58-16.6-12.41h0"/><path class="cls-9" d="M754.36,181.82h4.54a4.54,4.54,0,0,1,4.54,4.54v62.51a4.54,4.54,0,0,1-4.54,4.54h0a4.54,4.54,0,0,1-4.54-4.54V181.82a0,0,0,0,1,0,0Z"/><path class="cls-9" d="M760.28,173.88h4.54a4.54,4.54,0,0,1,4.54,4.54v62.51a4.54,4.54,0,0,1-4.54,4.54h0a4.54,4.54,0,0,1-4.54-4.54V173.88A0,0,0,0,1,760.28,173.88Z"/><path class="cls-9" d="M809.13,181.82h0a4.54,4.54,0,0,1,4.54,4.54v62.51a4.54,4.54,0,0,1-4.54,4.54h-4.54a0,0,0,0,1,0,0V186.37A4.54,4.54,0,0,1,809.13,181.82Z" transform="translate(1618.25 435.24) rotate(180)"/><path class="cls-9" d="M803.21,173.88h0a4.54,4.54,0,0,1,4.54,4.54v62.51a4.54,4.54,0,0,1-4.54,4.54h-4.54a0,0,0,0,1,0,0V178.43A4.54,4.54,0,0,1,803.21,173.88Z" transform="translate(1606.42 419.37) rotate(-180)"/><circle class="cls-9" cx="784.02" cy="181.82" r="29.65"/><path class="cls-10" d="M770.88,166.84h26.59A12.12,12.12,0,0,1,809.6,179v30a25.35,25.35,0,0,1-25.35,25.35h0A25.35,25.35,0,0,1,758.91,209V178.81a12,12,0,0,1,12-12Z"/><path class="cls-9" d="M801.93,164.44s-1,23.3-43.3,11.65C758.63,176.09,756.55,156.68,801.93,164.44Z"/><path class="cls-11" d="M764,194.09h5.23s4.85,7,9.32,0"/><path class="cls-11" d="M804,194.09h-5.24s-4.85,7-9.31,0"/><path class="cls-12" d="M780.77,219.42h6.4a2.31,2.31,0,0,1,2.31,2.31v3.74a5.77,5.77,0,0,1-5.77,5.77h0a5.16,5.16,0,0,1-5.16-5.16v-4.44A2.21,2.21,0,0,1,780.77,219.42Z"/><path class="cls-1" d="M787.56,220a.5.5,0,0,0-.35-.14h-6.85a.48.48,0,0,0-.34.14l-.37.34a.51.51,0,0,0,0,.71,5.59,5.59,0,0,0,8.33,0,.5.5,0,0,0,0-.71Z"/><path class="cls-13" d="M787.22,226.83a.57.57,0,0,0-.45-.21h-6a.59.59,0,0,0-.46.21l-.29.34a.6.6,0,0,0,.11.88l1.7,1.21a3.3,3.3,0,0,0,1.92.61h0a3.3,3.3,0,0,0,1.92-.61l1.7-1.21a.6.6,0,0,0,.11-.88Z"/><rect class="cls-14" x="763.84" y="209.68" width="11.96" height="5.56" rx="2.78" ry="2.78"/><rect class="cls-14" x="792.23" y="209.68" width="11.96" height="5.56" rx="2.78" ry="2.78"/><path class="cls-15" d="M984.16,281.82,969.26,245l24.85,32.62-8.25,4.75A1.19,1.19,0,0,1,984.16,281.82Z"/><path class="cls-16" d="M996.1,229.56,969.26,245l18.55,24.35,29.13-16.79-19.09-22.72A1.39,1.39,0,0,0,996.1,229.56Z"/><path class="cls-16" d="M994.11,277.65l28.1-16.2a1.41,1.41,0,0,0,.38-2.13l-3.18-3.77-29.28,16.87Z"/><polygon class="cls-17" points="987.81 269.38 990.13 272.42 1019.41 255.54 1016.94 252.59 987.81 269.38"/><path class="cls-18" d="M989.38,233.92,983.74,224c-1.41-2.48-5.08-3-8.15-1.28h0c-3.07,1.77-4.43,5.24-3,7.72l5.64,9.91"/><path class="cls-19" d="M746.38,96.44,734.12,66.33,754.57,93l-6.8,3.89A1,1,0,0,1,746.38,96.44Z"/><path class="cls-20" d="M778,78l-2.61-3.09-2-2.42L757.65,53.93a1.15,1.15,0,0,0-1.44-.26L734.12,66.33l15.26,19.93,1.91,2.49L754.57,93,777.7,79.77A1.15,1.15,0,0,0,778,78Z"/><path class="cls-21" d="M750.68,57.24,746,49.13c-1.16-2-4.18-2.5-6.71-1.05h0c-2.53,1.45-3.65,4.29-2.49,6.32l4.65,8.11"/><circle class="cls-1" cx="756.2" cy="73.27" r="4.76"/><text class="cls-3" transform="translate(783.48 153.41) scale(1.02 1)">li<tspan class="cls-22" x="66.74" y="0">n</tspan><tspan x="125.24" y="0">e</tspan></text><text class="cls-3" transform="translate(567.09 289.08) scale(1.02 1)">Sho</text><path class="cls-23" d="M628.65,184.62l21.54-33.16-12.44,39-8.61-4.08A1.2,1.2,0,0,1,628.65,184.62Z"/><path class="cls-24" d="M670.77,161.68l4.87-10.27c1.22-2.57-.41-5.91-3.61-7.43h0c-3.21-1.52-6.82-.66-8,1.91l-4.87,10.27"/><path class="cls-25" d="M671.27,194.94l7.65-28.6a1.39,1.39,0,0,0-.75-1.62l-28-13.26-9.29,29.09-.95,3,30.56,14.26Z"/><path class="cls-25" d="M669,203.41l1.27-4.76h0l.05-.19-30.58-14.27h0l-2,6.25,29.3,13.88A1.4,1.4,0,0,0,669,203.41Z"/><polygon class="cls-26" points="639.95 183.53 639.74 184.18 670.33 198.46 670.51 197.79 639.95 183.53"/><path class="cls-27" d="M943.13,187.35,937.46,159l-2.08,29.86,7-.44A.87.87,0,0,0,943.13,187.35Z"/><path class="cls-28" d="M920.7,160.35l-.53-8.31c-.14-2.07,1.87-3.9,4.46-4.07h0c2.59-.16,4.82,1.4,5,3.47l.53,8.3"/><path class="cls-29" d="M914.84,160.41a1,1,0,0,0-1,.9l-2.54,21.52L911.1,185l-.06.51v.14l-.43,3.58a1,1,0,0,0,1.09,1.15l23.69-1.52.33-4.78,0-.5.16-2.29L937.46,159Z"/><polygon class="cls-1" points="926.96 176.7 920.81 177.14 921.46 170.98 927.61 170.54 926.96 176.7"/><rect class="cls-30" x="722.55" y="306.02" width="122.38" height="12.12" rx="3.05" ry="3.05"/><rect class="cls-31" x="722.55" y="227.91" width="122.38" height="88.21" rx="3.43" ry="3.43"/><circle class="cls-1" cx="783.73" cy="272.02" r="7.71"/></g></svg>