<svg xmlns="http://www.w3.org/2000/svg" xmlns:xlink="http://www.w3.org/1999/xlink" viewBox="0 0 1185.15 1622.38"><defs><style>.cls-1,.cls-10,.cls-5,.cls-7,.cls-8{fill:none;}.cls-2{fill:#fff;}.cls-3{font-size:20px;}.cls-3,.cls-4{font-family:Microsoft-Yi-Baiti, Microsoft Yi Baiti;}.cls-4{font-size:16px;}.cls-11,.cls-5,.cls-7{stroke:#4d4d4d;}.cls-10,.cls-11,.cls-5,.cls-7,.cls-8{stroke-miterlimit:10;}.cls-10,.cls-11,.cls-5,.cls-8{stroke-width:0.87px;}.cls-11,.cls-6{fill:#4d4d4d;}.cls-7{stroke-width:2.61px;}.cls-8{stroke:#fff;}.cls-9{clip-path:url(#clip-path);}.cls-10{stroke:#000;}</style><clipPath id="clip-path"><circle class="cls-1" cx="852.49" cy="1180.33" r="53.54"/></clipPath></defs><title>Project overview</title><g id="BG"><rect class="cls-2" width="1185.15" height="1622.38"/></g><g id="圖層_1" data-name="圖層 1"><text class="cls-3" transform="translate(807.64 194.72)">Interview</text><text class="cls-4" transform="translate(744.62 354.91)">Interview interviewees to record<tspan x="-15.95" y="19.2" xml:space="preserve"> their shopping process and reasons</tspan><tspan x="4.78" y="38.4" xml:space="preserve"> behind the shopping choices</tspan></text><circle class="cls-5" cx="837.57" cy="267.84" r="53.54"/><path class="cls-6" d="M834,267.15l-13.73,4.17a.33.33,0,0,1-.39-.19l-3.15-7.92a.32.32,0,0,1,.2-.43L832,258.21a.33.33,0,0,1,.41.24l1.81,8.33A.32.32,0,0,1,834,267.15Z"/><path class="cls-6" d="M833,288.75h0c-1.4.43-3-.68-3.51-2.46L824.37,271a.4.4,0,0,1,.27-.51l5.19-1.58a.39.39,0,0,1,.5.28l4.22,15.54C835.09,286.54,834.4,288.33,833,288.75Z"/><path class="cls-6" d="M831.09,252.92a8.57,8.57,0,1,0-13.7,9.06l13.73-4.16A8.52,8.52,0,0,0,831.09,252.92Z"/><path class="cls-6" d="M849.23,254A10.35,10.35,0,0,0,842.36,267a10.46,10.46,0,0,0,.55,1.42l-2.66,5,5.64-1.23a10.35,10.35,0,1,0,3.34-18.1Z"/><text class="cls-3" transform="translate(323.89 62.26)">Inspiration</text><circle class="cls-5" cx="358.96" cy="135.13" r="53.54"/><path class="cls-6" d="M370.9,134.85A11.81,11.81,0,1,0,352,144.32l0,4.94,14.4-.09,0-4.94A11.82,11.82,0,0,0,370.9,134.85Z"/><path class="cls-6" d="M363.58,153.33l-9.1,0a1.45,1.45,0,0,1-1.46-1.44v-.8a.36.36,0,0,1,.36-.36l11.27-.08a.36.36,0,0,1,.36.36v.81A1.46,1.46,0,0,1,363.58,153.33Z"/><path class="cls-6" d="M355.14,154.76H363a0,0,0,0,1,0,0V155a3.52,3.52,0,0,1-3.52,3.52h-.78a3.52,3.52,0,0,1-3.52-3.52v-.21A0,0,0,0,1,355.14,154.76Z" transform="translate(-0.99 2.29) rotate(-0.37)"/><line class="cls-7" x1="345.26" y1="115.13" x2="348.87" y2="121.69"/><line class="cls-7" x1="372.67" y1="114.96" x2="369.14" y2="121.56"/><line class="cls-7" x1="358.99" y1="119.24" x2="358.94" y2="111.76"/><text class="cls-4" transform="translate(244.68 222.45)">Is it possible to expliot the mass data <tspan x="-9.39" y="19.2">display ability of D3 to optimize the online</tspan><tspan x="49.18" y="38.4" xml:space="preserve"> shopping experience?</tspan></text><text class="cls-3" transform="translate(318.61 358.01)">Observation</text><circle class="cls-5" cx="358.96" cy="430.88" r="53.54"/><text class="cls-4" transform="translate(266.75 518.2)">Observe the shopping behavior <tspan x="-13.81" y="19.2">and record critical shopping choices </tspan><tspan x="34.72" y="38.4">during the interview.</tspan></text><circle class="cls-6" cx="342.27" cy="427.76" r="13.25"/><path class="cls-8" d="M335.15,433.33a9,9,0,0,0,7.12,3.47"/><path class="cls-8" d="M333.56,425.33a8.86,8.86,0,0,0-.33,2.43,9.14,9.14,0,0,0,.83,3.8"/><polyline class="cls-6" points="351.11 439.42 359.41 453.5 355.54 455.79 347.24 441.7"/><circle class="cls-5" cx="375.9" cy="431.56" r="4.81"/><circle class="cls-6" cx="375.9" cy="431.56" r="4.81"/><path class="cls-8" d="M375.9,428.93a2.62,2.62,0,0,0-2.62,2.63"/><path class="cls-5" d="M387.3,431.56c-12.23,15.61-22.38,0-22.38,0S375.07,415.94,387.3,431.56Z"/><text class="cls-3" transform="translate(829.08 803.02)">Sketch</text><circle class="cls-5" cx="852.49" cy="875.89" r="53.54"/><text class="cls-4" transform="translate(785.92 963.21)">Sketch the concept of <tspan x="-15.7" y="19.2">manifesting multidimensional </tspan><tspan x="17.64" y="38.4">data connections.</tspan></text><path class="cls-5" d="M820.41,588.17l-.22-8.94s.3-2,3.2-3.67,9.63-5,9.63-5v-.69"/><path class="cls-5" d="M854.8,588.17l.23-8.94s-.3-2-3.21-3.67-9.63-5-9.63-5v-.92"/><path class="cls-6" d="M839,576.48a6.17,6.17,0,0,0-1.08-3,.35.35,0,0,0-.59,0,6.37,6.37,0,0,0-1.08,3c0,1.73-.46,17.65-.46,17.65s.9,1.83,1.84,1.84,1.83-1.84,1.83-1.84S839,578.21,839,576.48Z"/><path class="cls-6" d="M830.7,572.16l4.47,4.67a.37.37,0,0,0,.6-.1l1.38-3s.18-.74-.92-1.38a21.84,21.84,0,0,0-3.33-1.34.5.5,0,0,0-.21,0l-1.82.5A.37.37,0,0,0,830.7,572.16Z"/><path class="cls-6" d="M844.51,572.17l-4.46,4.65a.37.37,0,0,1-.61-.1l-1.37-2.94s-.18-.74.91-1.38a21.49,21.49,0,0,1,3.34-1.34.5.5,0,0,1,.21,0l1.81.5A.38.38,0,0,1,844.51,572.17Z"/><path class="cls-6" d="M827.53,558.37s-1.46-10.93,6-13.14c4-1.2,5.61-1.11,7.65.24,1.28.86,4.77,4.13,7.4,4.3,1.44.09,1.44.24,1.44.24s-5.34,8-8.84,7.88-9.18-3.15-9.32-6C831.83,551.92,830.81,557.14,827.53,558.37Z"/><path class="cls-6" d="M834.63,549.2s3,4.88,8.25,4.13"/><path class="cls-6" d="M835.77,547.14s3.25,4.79,11.92,3.9"/><path class="cls-5" d="M828.67,555.16V563a3.75,3.75,0,0,0,.46,1.79c1,1.8,3.47,5.76,6,5.76h5c2.49,0,5-4,6-5.76a3.75,3.75,0,0,0,.46-1.79v-10.1s-9.76-2.52-14.9-1.83C829.74,551.29,828.67,555.14,828.67,555.16Z"/><text class="cls-3" transform="translate(809.73 498.87)">Persona</text><text class="cls-4" transform="translate(756.34 659.06)">Specify the persona of this<tspan x="-10.33" y="19.2" xml:space="preserve"> research, and conclude their </tspan><tspan x="1.32" y="38.4">characteristics and habits .</tspan></text><circle class="cls-5" cx="837.57" cy="571.99" r="53.54"/><text class="cls-3" transform="translate(332.26 653.76)">Analysis</text><text class="cls-4" transform="translate(271.04 813.95)">Analyze the users’ purchase <tspan x="-7.03" y="19.2">process and their interviews to </tspan><tspan x="3.29" y="38.4">dig out the real pain points.</tspan></text><circle class="cls-5" cx="358.99" cy="726.88" r="53.54"/><path class="cls-5" d="M355.26,726.72l4.22-10.92-3.18-1.22,1.32-3.43,17,6.58-1.33,3.42-3.18-1.23-4.21,10.92A17.49,17.49,0,0,1,371.07,751a17.77,17.77,0,1,1-33.15-12.81A17.48,17.48,0,0,1,355.26,726.72Z"/><path class="cls-6" d="M356,740.75c-4.66,1.56-10.12-1.08-12.71-2.61l-.06.11a14.13,14.13,0,0,0-1,2A13.52,13.52,0,1,0,368,742C365,740.79,360.12,739.36,356,740.75Z"/><circle class="cls-6" cx="358.77" cy="732.12" r="1.44"/><circle class="cls-6" cx="364.44" cy="710.45" r="1.37"/><circle class="cls-6" cx="371.46" cy="705.96" r="2.45"/><circle class="cls-6" cx="364.6" cy="695.05" r="3.64"/><circle class="cls-6" cx="352.43" cy="735.96" r="1.84"/><circle class="cls-2" cx="351.87" cy="751.37" r="2.22"/><circle class="cls-2" cx="359.56" cy="747.34" r="3.97"/><text class="cls-3" transform="translate(326.42 949.51)">Research</text><text class="cls-4" transform="translate(263.63 1109.7)">Research for the most suitable <tspan x="-19.9" y="19.2">D3 chart to demonstrate the relations </tspan><tspan x="22.78" y="38.4">and solve the problems.</tspan></text><circle class="cls-5" cx="358.99" cy="1022.63" r="53.54"/><text class="cls-3" transform="translate(816.64 1107.47)">Wireframe</text><text class="cls-4" transform="translate(789.71 1267.66)">Design the user flows<tspan x="-15.45" y="19.2">of each data-visualization. </tspan></text><circle class="cls-5" cx="852.49" cy="1180.33" r="53.54"/><text class="cls-3" transform="translate(326.96 1256.98)">Prototype</text><text class="cls-4" transform="translate(279.02 1417.17)">Program several D3 charts<tspan x="-0.01" y="19.2">which can solve problems </tspan><tspan x="25.31" y="38.4">researched before.</tspan></text><circle class="cls-5" cx="359.43" cy="1330.1" r="53.54"/><g class="cls-9"><line class="cls-5" x1="805.26" y1="1217.15" x2="805.26" y2="1146.17"/><line class="cls-5" x1="800.44" y1="1181.22" x2="805.26" y2="1181.22"/><line class="cls-5" x1="805.26" y1="1205.1" x2="856.52" y2="1205.1"/><rect class="cls-6" x="820.16" y="1192.18" width="16.21" height="25.85"/><rect class="cls-6" x="847.76" y="1192.18" width="16.21" height="25.85"/><line class="cls-5" x1="805.26" y1="1171.73" x2="877.99" y2="1171.73"/><rect class="cls-6" x="820.16" y="1158.8" width="16.21" height="25.85"/><rect class="cls-6" x="820.16" y="1225.55" width="16.21" height="25.85"/><rect class="cls-6" x="820.16" y="1125.5" width="16.21" height="25.85"/><rect class="cls-6" x="847.76" y="1158.8" width="16.21" height="25.85"/><rect class="cls-6" x="875.8" y="1158.8" width="16.21" height="25.85"/></g><text class="cls-3" transform="translate(806.79 1411.33)">User Testing</text><text class="cls-4" transform="translate(799.36 1571.52)">Test the design of<tspan x="-31.51" y="19.2">the visualization and improve.</tspan></text><circle class="cls-5" cx="852.49" cy="1484.19" r="53.54"/><rect class="cls-5" x="339.52" y="1299.11" width="41.57" height="61.98" rx="1.82" ry="1.82"/><path class="cls-6" d="M360.55,1317.86a2.83,2.83,0,0,0-2.83,2.87,2.83,2.83,0,0,0,5.65,0A2.83,2.83,0,0,0,360.55,1317.86Z"/><path class="cls-6" d="M376.65,1302.19H344.36a.85.85,0,0,0-.86.86v44.76a.86.86,0,0,0,.86.86h32.29a.86.86,0,0,0,.86-.86v-44.76A.85.85,0,0,0,376.65,1302.19Zm-8.66,38.7a12.15,12.15,0,0,0-3.8-2.83c-.68-.32-1.1-.35-1.51.4a14,14,0,0,1-1.72,2.21c-.3.36-.49.42-.82,0a21.09,21.09,0,0,1-1.93-2.5c-.27-.43-.52-.45-.95-.28a10.82,10.82,0,0,0-3.69,2.5l-.65.72a18.92,18.92,0,0,1,2.41-7.29,1.21,1.21,0,0,0,.13-1.15q-3.88-12.6,4.65-22.66c.35-.41.52-.4.87,0a22.74,22.74,0,0,1,5.81,16.77,21.77,21.77,0,0,1-1.22,6,1,1,0,0,0,.14.94,18.3,18.3,0,0,1,2.34,6.6A.52.52,0,0,1,368,1340.89Z"/><rect class="cls-6" x="343.77" y="1351.35" width="10.1" height="6.61"/><rect class="cls-6" x="355.67" y="1351.35" width="10.1" height="6.61"/><rect class="cls-6" x="367.56" y="1351.35" width="10.1" height="6.61"/><path class="cls-5" d="M880.68,1528.64v-72.47a1,1,0,0,0-1-1h-58a1,1,0,0,0-1,1v70.73"/><path class="cls-5" d="M876.33,1531.25v-70.2a.72.72,0,0,0-.72-.72H825.72a.72.72,0,0,0-.72.72V1530"/><path class="cls-6" d="M866.56,1457.74h-10.8a5.78,5.78,0,0,0,1-3.26,5.87,5.87,0,1,0-10.75,3.26H834.77a.86.86,0,0,0-.85.86v3.94a.86.86,0,0,0,.85.86h31.79a.86.86,0,0,0,.85-.86v-3.94A.86.86,0,0,0,866.56,1457.74Z"/><rect class="cls-5" x="830.73" y="1476.01" width="6.52" height="6.52" rx="0.57" ry="0.57" transform="translate(-645.28 2313.26) rotate(-90)"/><polyline class="cls-5" points="831.6 1478.31 833.84 1480.55 839.43 1474.96"/><rect class="cls-6" x="841.6" y="1475.84" width="30.01" height="6.05"/><rect class="cls-5" x="830.73" y="1489.25" width="6.52" height="6.52" rx="0.57" ry="0.57" transform="translate(-658.52 2326.5) rotate(-90)"/><polyline class="cls-5" points="831.6 1491.55 833.84 1493.78 839.43 1488.19"/><rect class="cls-6" x="841.6" y="1489.07" width="30.01" height="6.05"/><rect class="cls-5" x="830.73" y="1502.48" width="6.52" height="6.52" rx="0.57" ry="0.57" transform="translate(-671.76 2339.74) rotate(-90)"/><rect class="cls-6" x="841.6" y="1502.31" width="30.01" height="6.05"/><rect class="cls-5" x="830.73" y="1515.72" width="6.52" height="6.52" rx="0.57" ry="0.57" transform="translate(-684.99 2352.97) rotate(-90)"/><rect class="cls-6" x="841.6" y="1515.55" width="30.01" height="6.05"/><circle class="cls-1" cx="851.62" cy="1484.19" r="53.15"/><line class="cls-10" x1="410.61" y1="149.45" x2="786.12" y2="253.57"/><line class="cls-10" x1="408.9" y1="412.12" x2="786.37" y2="283.54"/><line class="cls-10" x1="411.96" y1="440.42" x2="790.98" y2="545.52"/><line class="cls-10" x1="407.85" y1="704.82" x2="784.23" y2="576.61"/><line class="cls-10" x1="408.73" y1="746.78" x2="802.4" y2="855.94"/><line class="cls-10" x1="411.25" y1="1013.21" x2="799.19" y2="881.06"/><line class="cls-10" x1="408.73" y1="1043.72" x2="805.89" y2="1153.85"/><line class="cls-10" x1="411.85" y1="1320.48" x2="800.01" y2="1188.25"/><line class="cls-10" x1="409.7" y1="1348.56" x2="805.55" y2="1458.33"/><path class="cls-11" d="M870.13,891.23c7.69-9.06,11-27.77,11.8-33.55a.49.49,0,0,0-.87-.37c-3.58,4.55-14.74,19.54-16.2,31.31,0,0,2.15-1.88,3.67-1.1S870.13,891.23,870.13,891.23Z"/><path class="cls-5" d="M864.87,888.6a17.18,17.18,0,0,0,0,4.81,1.27,1.27,0,0,0,2,.84,17.25,17.25,0,0,0,3.29-3"/><path class="cls-5" d="M865.39,894.66s6.24,7-4.91,11.42c0,0,1.3-6.74-.5-8.4C860,897.68,862,893.22,865.39,894.66Z"/><path class="cls-6" d="M860.48,906.08c7.94-3.12,7.55-7.32,5.45-10.68Z"/><circle class="cls-5" cx="829.32" cy="866.66" r="2.87"/><circle class="cls-5" cx="826.46" cy="875.48" r="2.87"/><circle class="cls-5" cx="830.93" cy="884.08" r="2.87"/><circle class="cls-5" cx="839.98" cy="886.94" r="2.87"/><circle class="cls-5" cx="851.9" cy="873.74" r="2.87"/><path class="cls-5" d="M855.45,866.34a4.75,4.75,0,0,1-6.09-7.29,1.11,1.11,0,0,0-.18-1.76A19.25,19.25,0,1,0,858.31,876a19.43,19.43,0,0,0-1.15-9.14A1.12,1.12,0,0,0,855.45,866.34Z"/><polyline class="cls-5" points="361.3 1010.07 361.3 1002.56 373.37 1002.56 373.37 1025.72 361.3 1025.72 361.3 1018.55"/><polygon class="cls-5" points="369.78 1030.94 364.89 1030.94 363.58 1025.72 371.08 1025.72 369.78 1030.94"/><circle class="cls-5" cx="360.65" cy="1014.31" r="4.24"/><rect class="cls-5" x="365.21" y="996.37" width="4.24" height="6.2"/><path class="cls-5" d="M357.71,1011H347.6s-6.2,1.55-6.2,6.85v28.38H377v-5.87H341.07"/><path class="cls-5" d="M348.25,1040.08v-19.25s-.26-3.26,2-3.26H358"/><rect class="cls-5" x="360.32" y="1035.51" width="14.03" height="1.96"/><circle class="cls-5" cx="360.65" cy="1014.31" r="0.98"/></g></svg>